# xmcd
#
# Track frame offsets:
#	150
#	15626
#	31530
#	47255
#	63060
#	79661
#	93225
#	107985
#	124758
#	141286
#	157284
#	173273
#	188926
#	201836
#	217688
#	235280
#
# Disc length: 3331 seconds
#
# Revision: 1
# Processed by: cddbd v1.5.2PL0 Copyright (c) Steve Scherf et al.
# Submitted via: EasyCDDAExtractor 12.0.2.1
#
DISCID=c50d0110
DTITLE=Gerrie Pretorius - Alles Pas
DYEAR=2009
DGENRE=Country
TTITLE0=Alles Pas
TTITLE1=Westewind
TTITLE2=Ek Wil Jou Vir Altyd
TTITLE3=Lerkerste lyfie
TTITLE4=Dan The Banjoman
TTITLE5=Hang 'n Duisend Liggies
TTITLE6=My Lisa-Marie
TTITLE7=Gaan Dan
TTITLE8=Jou Liefde Is Lewe
TTITLE9=O Lord It's Hard To Be Humble
TTITLE10=Liefde
TTITLE11='n 1000 Maal
TTITLE12=Missisippi
TTITLE13=Liefde Is Alles
TTITLE14=My Friend The Wind
TTITLE15=SomerLiefde
EXTD=
EXTT0=
EXTT1=
EXTT2=
EXTT3=
EXTT4=
EXTT5=
EXTT6=
EXTT7=
EXTT8=
EXTT9=
EXTT10=
EXTT11=
EXTT12=
EXTT13=
EXTT14=
EXTT15=
PLAYORDER=
